<svg xmlns="http://www.w3.org/2000/svg"><symbol id="logo-16" viewBox="0 0 16 16"><path fill="none" stroke="#fff" stroke-miterlimit="10" stroke-width=".5" d="M3.4 3.4h9.3v9.3H3.4z"/><path fill="#f1ec67" d="M10.9 5.2l-2.4 5.3a.6.6 0 0 0 0 .6c.1.3.3.3.5.3l3-1.1a.4.4 0 0 0 .2-.4v-.4s0-.2-.2-.1l-2.5.9 2-4.4s.1-.1 0-.3-.3-.6-.4-.6zm-8.1 0L.4 10.6a.4.4 0 0 0 0 .5c.1.3.3.3.5.3l3-1.1s.2 0 .2-.3v-.5s0-.2-.2-.1l-2.5.9 2-4.4s.1-.1 0-.3-.3-.6-.4-.5z"/><path fill="#f1ec67" d="M11.3 9s-.1.1 0-.1l.3-.6s0-.1.2-.2h.3l1.7-3.3s.1-.3.2-.2a1.6 1.6 0 0 1 .4.7v1.8l1.1-.5h.2l-.3.9-.3.2-.8.2v2.8a.2.2 0 0 1-.2.2h-.6V8.2zm2.4-2.7l-.6 1.3.6-.2zm-6.6 3.9a5.5 5.5 0 0 0 2.2-2.9c.1-.4.4-1.9-1.6-1.8a6.4 6.4 0 0 0-3.5 1.6s-.2.2-.2 1 .5-.4 1.6-1.1S8 5.9 8.4 6.4 8 8.6 6.8 9.5s-1.2.7-1.3.2A4.2 4.2 0 0 1 6.7 7s.1-.1-.3-.1a1.4 1.4 0 0 0-.9.3 5 5 0 0 0-.9 2.5c.1 1 .6 1.1 1.2 1a4.8 4.8 0 0 0 1.3-.5z"/></symbol><symbol id="logo-24" viewBox="0 0 24 24"><path fill="none" stroke="#fff" stroke-miterlimit="10" stroke-width=".5" d="M5.1 5.1h13.8v13.84H5.1z"/><path fill="#f1ec67" d="M16.4 7.8l-3.6 8a.7.7 0 0 0-.1.8c.2.4.6.5.7.4l4.6-1.6s.2-.1.2-.5a1.2 1.2 0 0 0 0-.7s.1-.3-.3-.2l-3.7 1.4 3-6.5a.7.7 0 0 0 0-.5c-.2-.3-.5-.9-.6-.8a.2.2 0 0 0-.2.2zm-12.1 0l-3.6 8a.8.8 0 0 0-.1.8.9.9 0 0 0 .8.5l4.5-1.7s.3 0 .3-.5v-.7a.2.2 0 0 0-.3-.2l-3.7 1.4 3-6.5a.5.5 0 0 0-.1-.5c-.1-.3-.4-.8-.6-.8z"/><path fill="#f1ec67" d="M17 13.6s-.3 0-.1-.3l.4-.8s0-.2.3-.3h.5l2.5-4.9s.1-.4.3-.2.7.7.7 1v2.6l1.6-.7s.3-.1.2.1a10.4 10.4 0 0 1-.3 1.2l-.5.3-1.2.4v4s0 .4-.3.3l-.9-.2c-.1 0-.1-.1-.1-.2s.1-3.6.1-3.6zm3.5-4.1l-.9 2 .8-.4zm-9.8 5.7a7.3 7.3 0 0 0 3.2-4.2c.1-.6.6-2.9-2.3-2.8a9.3 9.3 0 0 0-5.2 2.5s-.4.2-.4 1.4.8-.6 2.4-1.6 3.6-1.7 4.2-.9-.6 3.2-2.3 4.6c0 0-1.9 1.1-2 .3a6.5 6.5 0 0 1 1.7-4s.2-.2-.3-.1a2 2 0 0 0-1.4.5c-.2.3-1.5 2.2-1.4 3.6s.9 1.7 1.8 1.6a7.8 7.8 0 0 0 2-.9z"/></symbol><symbol id="logo-32" viewBox="0 0 32 32"><path fill="none" stroke="#fff" stroke-miterlimit="10" stroke-width=".5" d="M6.5 6.5h19v18.98h-19z"/><path fill="#f1ec67" d="M22 10.3l-4.9 10.9a1.3 1.3 0 0 0-.2 1.1 1.3 1.3 0 0 0 1.1.6l6.2-2.3s.3 0 .4-.6v-1s0-.4-.5-.2L19 20.7l4.2-8.9a1.3 1.3 0 0 0-.1-.8c-.2-.4-.6-1.1-.9-1.1zm-16.5 0l-5 10.9a1.4 1.4 0 0 0-.1 1.1.8.8 0 0 0 1 .6c.3 0 6.3-2.3 6.3-2.3s.3 0 .3-.6a2.7 2.7 0 0 0 0-1s.1-.4-.4-.2l-5.1 1.9 4.1-8.9a.7.7 0 0 0 0-.7c-.2-.4-.7-1.2-.9-1.1s-.2.3-.2.3z"/><path fill="#f1ec67" d="M22.8 18.1s-.4.1-.1-.3l.6-1.1s0-.3.4-.4l.6-.2 3.5-6.7s.2-.5.4-.3 1 1 1 1.4v3.6l2.2-.9s.3-.2.3 0l-.5 1.7s-.1.2-.7.4l-1.5.6v5.6s0 .5-.4.5l-1.2-.3c-.1-.1-.2-.1-.2-.4s.2-4.8.2-4.8zm4.9-5.5l-1.3 2.7 1.2-.6zm-13.5 7.8c3.7-2.6 4.1-5 4.4-5.8s.8-4-3.2-3.8-7.1 3.4-7.1 3.4-.6.3-.5 1.9 1.1-.8 3.3-2.2 4.9-2.2 5.7-1.2-.8 4.4-3.2 6.3c0 0-2.5 1.6-2.6.4s.5-3.5 2.3-5.4c0 0 .2-.3-.5-.3a3.6 3.6 0 0 0-1.9.7c-.2.5-2.1 3.1-1.9 5.1s1.3 2.3 2.5 2.1a7.6 7.6 0 0 0 2.7-1.2z"/></symbol><symbol id="logo-64" viewBox="0 0 64 64"><path fill="none" stroke="#fff" stroke-miterlimit="10" stroke-width=".5" d="M13.5 13.5h37v37.01h-37z"/><path fill="#f1ec67" d="M43.7 20.8l-9.6 21.3a2.5 2.5 0 0 0-.3 2.1 2 2 0 0 0 2 1.2L48 41s.6-.1.7-1.3a9.4 9.4 0 0 0 0-1.9s.1-.7-.8-.4l-10 3.7L46 23.8a1.9 1.9 0 0 0-.1-1.5c-.5-.8-1.3-2.3-1.7-2.1s-.5.6-.5.6zm-32.3.1L1.8 42.2a2.2 2.2 0 0 0-.2 2.1 1.8 1.8 0 0 0 2 1.2L15.8 41s.6 0 .6-1.2a9.4 9.4 0 0 0 0-1.9s.1-.8-.8-.5l-9.9 3.8 8-17.4a1.6 1.6 0 0 0-.1-1.4c-.4-.8-1.2-2.3-1.7-2.1s-.5.6-.5.6z"/><path fill="#f1ec67" d="M45.3 36.2s-.7.1-.3-.7l1.1-2.2a1.4 1.4 0 0 1 1-.7l1.1-.3 6.7-13.2s.4-.9.8-.6 2 2.1 2 2.8v7l4.4-1.8s.6-.4.5.1-1 3.3-1 3.3-.1.4-1.2.7l-3.1 1.1-.2 11.1a.8.8 0 0 1-.8.8 5.6 5.6 0 0 1-2.3-.5.9.9 0 0 1-.3-.8c0-.5.3-9.4.3-9.4zm9.5-10.8l-2.6 5.2 2.4-1.1zM28.6 40.6c7-5.1 8-9.8 8.4-11.3s1.7-7.8-6.1-7.4S17 28.4 17 28.4s-1.1.6-.9 3.8 2.1-1.5 6.3-4.2 9.6-4.5 11.2-2.4-1.5 8.6-6.3 12.2c0 0-4.8 3.2-5.1.9s1.1-7 4.5-10.6c0 0 .4-.6-.9-.5s-3.1.5-3.7 1.4-4.1 6-3.7 9.8 2.5 4.4 4.9 4a18.1 18.1 0 0 0 5.3-2.2z"/></symbol></svg>