<?xml version="1.0" encoding="utf-8"?>
<!-- Generator: Adobe Illustrator 24.0.0, SVG Export Plug-In . SVG Version: 6.00 Build 0)  -->
<svg version="1.1" id="Layer_1" xmlns="http://www.w3.org/2000/svg" xmlns:xlink="http://www.w3.org/1999/xlink" x="0px" y="0px"
	 viewBox="0 0 64 64" style="enable-background:new 0 0 64 64;" xml:space="preserve">
<style type="text/css">
	.st0{fill:none;stroke:#FFFFFF;stroke-width:0.5;stroke-miterlimit:10;}
</style>
<path class="st0" d="M13.5,13.5h37v37h-37V13.5z"/>
<path d="M43.7,20.8l-9.6,21.3c-0.4,0.6-0.5,1.4-0.3,2.1c0.3,0.8,1.1,1.3,2,1.2L48,41c0,0,0.6-0.1,0.7-1.3c0.1-0.6,0.1-1.3,0-1.9
	c0,0,0.1-0.7-0.8-0.4l-10,3.7L46,23.8c0.2-0.5,0.1-1-0.1-1.5c-0.5-0.8-1.3-2.3-1.7-2.1S43.7,20.8,43.7,20.8z M11.4,20.9L1.8,42.2
	c-0.4,0.6-0.5,1.4-0.2,2.1c0.3,0.8,1.1,1.3,2,1.2L15.8,41c0,0,0.6,0,0.6-1.2c0.1-0.6,0.1-1.3,0-1.9c0,0,0.1-0.8-0.8-0.5l-9.9,3.8
	l8-17.4c0.2-0.5,0.1-1-0.1-1.4c-0.4-0.8-1.2-2.3-1.7-2.1S11.4,20.9,11.4,20.9z"/>
<path d="M45.3,36.2c0,0-0.7,0.1-0.3-0.7l1.1-2.2c0.2-0.4,0.6-0.6,1-0.7l1.1-0.3l6.7-13.2c0,0,0.4-0.9,0.8-0.6s2,2.1,2,2.8v7l4.4-1.8
	c0,0,0.6-0.4,0.5,0.1s-1,3.3-1,3.3s-0.1,0.4-1.2,0.7l-3.1,1.1l-0.2,11.1c0,0.4-0.4,0.8-0.8,0.8c-0.8,0-1.6-0.2-2.3-0.5
	c-0.2-0.2-0.3-0.5-0.3-0.8c0-0.5,0.3-9.4,0.3-9.4L45.3,36.2z M54.8,25.4l-2.6,5.2l2.4-1.1L54.8,25.4z M28.6,40.6
	c7-5.1,8-9.8,8.4-11.3s1.7-7.8-6.1-7.4S17,28.4,17,28.4s-1.1,0.6-0.9,3.8s2.1-1.5,6.3-4.2s9.6-4.5,11.2-2.4s-1.5,8.6-6.3,12.2
	c0,0-4.8,3.2-5.1,0.9s1.1-7,4.5-10.6c0,0,0.4-0.6-0.9-0.5s-3.1,0.5-3.7,1.4s-4.1,6-3.7,9.8s2.5,4.4,4.9,4
	C25.2,42.4,27,41.6,28.6,40.6z"/>
</svg>
