<svg xmlns="http://www.w3.org/2000/svg" width="24" height="24" viewBox="0 0 24 24"><path fill="none" stroke="#fff" stroke-miterlimit="10" stroke-width=".5" d="M5.1 5.1h13.8v13.84H5.1z"/><path fill="#f1ec67" d="M16.4 7.8l-3.6 8a.7.7 0 0 0-.1.8c.2.4.6.5.7.4l4.6-1.6s.2-.1.2-.5a1.2 1.2 0 0 0 0-.7s.1-.3-.3-.2l-3.7 1.4 3-6.5a.7.7 0 0 0 0-.5c-.2-.3-.5-.9-.6-.8a.2.2 0 0 0-.2.2zm-12.1 0l-3.6 8a.8.8 0 0 0-.1.8.9.9 0 0 0 .8.5l4.5-1.7s.3 0 .3-.5v-.7a.2.2 0 0 0-.3-.2l-3.7 1.4 3-6.5a.5.5 0 0 0-.1-.5c-.1-.3-.4-.8-.6-.8z"/><path fill="#f1ec67" d="M17 13.6s-.3 0-.1-.3l.4-.8s0-.2.3-.3h.5l2.5-4.9s.1-.4.3-.2.7.7.7 1v2.6l1.6-.7s.3-.1.2.1a10.4 10.4 0 0 1-.3 1.2l-.5.3-1.2.4v4s0 .4-.3.3l-.9-.2c-.1 0-.1-.1-.1-.2s.1-3.6.1-3.6zm3.5-4.1l-.9 2 .8-.4zm-9.8 5.7a7.3 7.3 0 0 0 3.2-4.2c.1-.6.6-2.9-2.3-2.8a9.3 9.3 0 0 0-5.2 2.5s-.4.2-.4 1.4.8-.6 2.4-1.6 3.6-1.7 4.2-.9-.6 3.2-2.3 4.6c0 0-1.9 1.1-2 .3a6.5 6.5 0 0 1 1.7-4s.2-.2-.3-.1a2 2 0 0 0-1.4.5c-.2.3-1.5 2.2-1.4 3.6s.9 1.7 1.8 1.6a7.8 7.8 0 0 0 2-.9z"/></svg>