<?xml version="1.0" encoding="utf-8"?>
<!-- Generator: Adobe Illustrator 24.0.0, SVG Export Plug-In . SVG Version: 6.00 Build 0)  -->
<svg version="1.1" id="Layer_1" xmlns="http://www.w3.org/2000/svg" xmlns:xlink="http://www.w3.org/1999/xlink" x="0px" y="0px"
	 viewBox="0 0 32 32" style="enable-background:new 0 0 32 32;" xml:space="preserve">
<style type="text/css">
	.st0{fill:none;stroke:#FFFFFF;stroke-width:0.5;stroke-miterlimit:10;}
</style>
<path class="st0" d="M6.5,6.5h19v19h-19V6.5z"/>
<path d="M22,10.3l-4.9,10.9c-0.2,0.3-0.3,0.7-0.2,1.1c0.2,0.4,0.7,0.6,1.1,0.6l6.2-2.3c0,0,0.3,0,0.4-0.6v-1c0,0,0-0.4-0.5-0.2
	L19,20.7l4.2-8.9c0.1-0.3,0-0.6-0.1-0.8c-0.2-0.4-0.6-1.1-0.9-1.1L22,10.3z M5.5,10.3l-5,10.9c-0.2,0.3-0.2,0.7-0.1,1.1
	c0.1,0.4,0.5,0.7,1,0.6c0,0,0,0,0,0c0.3,0,6.3-2.3,6.3-2.3S8,20.6,8,20c0.1-0.3,0.1-0.7,0-1c0,0,0.1-0.4-0.4-0.2l-5.1,1.9l4.1-8.9
	c0.1-0.2,0.1-0.5,0-0.7C6.4,10.7,5.9,9.9,5.7,10S5.5,10.3,5.5,10.3z"/>
<path d="M22.8,18.1c0,0-0.4,0.1-0.1-0.3l0.6-1.1c0,0,0-0.3,0.4-0.4l0.6-0.2l3.5-6.7c0,0,0.2-0.5,0.4-0.3s1,1,1,1.4v3.6l2.2-0.9
	c0,0,0.3-0.2,0.3,0l-0.5,1.7c0,0-0.1,0.2-0.7,0.4L29,15.9v5.6c0,0,0,0.5-0.4,0.5l-1.2-0.3c-0.1-0.1-0.2-0.1-0.2-0.4s0.2-4.8,0.2-4.8
	L22.8,18.1z M27.7,12.6l-1.3,2.7l1.2-0.6L27.7,12.6z M14.2,20.4c3.7-2.6,4.1-5,4.4-5.8s0.8-4-3.2-3.8s-7.1,3.4-7.1,3.4
	s-0.6,0.3-0.5,1.9s1.1-0.8,3.3-2.2s4.9-2.2,5.7-1.2S16,17.1,13.6,19c0,0-2.5,1.6-2.6,0.4s0.5-3.5,2.3-5.4c0,0,0.2-0.3-0.5-0.3
	c-0.7,0-1.3,0.3-1.9,0.7c-0.2,0.5-2.1,3.1-1.9,5.1s1.3,2.3,2.5,2.1C12.5,21.4,13.4,21,14.2,20.4z"/>
</svg>
