<svg xmlns="http://www.w3.org/2000/svg" width="64" height="64" viewBox="0 0 64 64"><path fill="none" stroke="#fff" stroke-miterlimit="10" stroke-width=".5" d="M13.5 13.5h37v37.01h-37z"/><path fill="#f1ec67" d="M43.7 20.8l-9.6 21.3a2.5 2.5 0 0 0-.3 2.1 2 2 0 0 0 2 1.2L48 41s.6-.1.7-1.3a9.4 9.4 0 0 0 0-1.9s.1-.7-.8-.4l-10 3.7L46 23.8a1.9 1.9 0 0 0-.1-1.5c-.5-.8-1.3-2.3-1.7-2.1s-.5.6-.5.6zm-32.3.1L1.8 42.2a2.2 2.2 0 0 0-.2 2.1 1.8 1.8 0 0 0 2 1.2L15.8 41s.6 0 .6-1.2a9.4 9.4 0 0 0 0-1.9s.1-.8-.8-.5l-9.9 3.8 8-17.4a1.6 1.6 0 0 0-.1-1.4c-.4-.8-1.2-2.3-1.7-2.1s-.5.6-.5.6z"/><path fill="#f1ec67" d="M45.3 36.2s-.7.1-.3-.7l1.1-2.2a1.4 1.4 0 0 1 1-.7l1.1-.3 6.7-13.2s.4-.9.8-.6 2 2.1 2 2.8v7l4.4-1.8s.6-.4.5.1-1 3.3-1 3.3-.1.4-1.2.7l-3.1 1.1-.2 11.1a.8.8 0 0 1-.8.8 5.6 5.6 0 0 1-2.3-.5.9.9 0 0 1-.3-.8c0-.5.3-9.4.3-9.4zm9.5-10.8l-2.6 5.2 2.4-1.1zM28.6 40.6c7-5.1 8-9.8 8.4-11.3s1.7-7.8-6.1-7.4S17 28.4 17 28.4s-1.1.6-.9 3.8 2.1-1.5 6.3-4.2 9.6-4.5 11.2-2.4-1.5 8.6-6.3 12.2c0 0-4.8 3.2-5.1.9s1.1-7 4.5-10.6c0 0 .4-.6-.9-.5s-3.1.5-3.7 1.4-4.1 6-3.7 9.8 2.5 4.4 4.9 4a18.1 18.1 0 0 0 5.3-2.2z"/></svg>