<svg enable-background="new 0 0 64 64" viewBox="0 0 64 64" xmlns="http://www.w3.org/2000/svg"><path d="m13.5 13.5h37v37h-37z" fill="none" stroke="#fff" stroke-miterlimit="10" stroke-width=".5"/><path d="m43.7 20.8-9.6 21.3c-.4.6-.5 1.4-.3 2.1.3.8 1.1 1.3 2 1.2l12.2-4.4s.6-.1.7-1.3c.1-.6.1-1.3 0-1.9 0 0 .1-.7-.8-.4l-10 3.7 8.1-17.3c.2-.5.1-1-.1-1.5-.5-.8-1.3-2.3-1.7-2.1s-.5.6-.5.6zm-32.3.1-9.6 21.3c-.4.6-.5 1.4-.2 2.1.3.8 1.1 1.3 2 1.2l12.2-4.5s.6 0 .6-1.2c.1-.6.1-1.3 0-1.9 0 0 .1-.8-.8-.5l-9.9 3.8 8-17.4c.2-.5.1-1-.1-1.4-.4-.8-1.2-2.3-1.7-2.1s-.5.6-.5.6z"/><path d="m45.3 36.2s-.7.1-.3-.7l1.1-2.2c.2-.4.6-.6 1-.7l1.1-.3 6.7-13.2s.4-.9.8-.6 2 2.1 2 2.8v7l4.4-1.8s.6-.4.5.1-1 3.3-1 3.3-.1.4-1.2.7l-3.1 1.1-.2 11.1c0 .4-.4.8-.8.8-.8 0-1.6-.2-2.3-.5-.2-.2-.3-.5-.3-.8 0-.5.3-9.4.3-9.4zm9.5-10.8-2.6 5.2 2.4-1.1zm-26.2 15.2c7-5.1 8-9.8 8.4-11.3s1.7-7.8-6.1-7.4-13.9 6.5-13.9 6.5-1.1.6-.9 3.8 2.1-1.5 6.3-4.2 9.6-4.5 11.2-2.4-1.5 8.6-6.3 12.2c0 0-4.8 3.2-5.1.9s1.1-7 4.5-10.6c0 0 .4-.6-.9-.5s-3.1.5-3.7 1.4-4.1 6-3.7 9.8 2.5 4.4 4.9 4c1.9-.4 3.7-1.2 5.3-2.2z"/></svg>