<svg xmlns="http://www.w3.org/2000/svg" width="32" height="32" viewBox="0 0 32 32"><path fill="none" stroke="#fff" stroke-miterlimit="10" stroke-width=".5" d="M6.5 6.5h19v18.98h-19z"/><path fill="#f1ec67" d="M22 10.3l-4.9 10.9a1.3 1.3 0 0 0-.2 1.1 1.3 1.3 0 0 0 1.1.6l6.2-2.3s.3 0 .4-.6v-1s0-.4-.5-.2L19 20.7l4.2-8.9a1.3 1.3 0 0 0-.1-.8c-.2-.4-.6-1.1-.9-1.1zm-16.5 0l-5 10.9a1.4 1.4 0 0 0-.1 1.1.8.8 0 0 0 1 .6c.3 0 6.3-2.3 6.3-2.3s.3 0 .3-.6a2.7 2.7 0 0 0 0-1s.1-.4-.4-.2l-5.1 1.9 4.1-8.9a.7.7 0 0 0 0-.7c-.2-.4-.7-1.2-.9-1.1s-.2.3-.2.3z"/><path fill="#f1ec67" d="M22.8 18.1s-.4.1-.1-.3l.6-1.1s0-.3.4-.4l.6-.2 3.5-6.7s.2-.5.4-.3 1 1 1 1.4v3.6l2.2-.9s.3-.2.3 0l-.5 1.7s-.1.2-.7.4l-1.5.6v5.6s0 .5-.4.5l-1.2-.3c-.1-.1-.2-.1-.2-.4s.2-4.8.2-4.8zm4.9-5.5l-1.3 2.7 1.2-.6zm-13.5 7.8c3.7-2.6 4.1-5 4.4-5.8s.8-4-3.2-3.8-7.1 3.4-7.1 3.4-.6.3-.5 1.9 1.1-.8 3.3-2.2 4.9-2.2 5.7-1.2-.8 4.4-3.2 6.3c0 0-2.5 1.6-2.6.4s.5-3.5 2.3-5.4c0 0 .2-.3-.5-.3a3.6 3.6 0 0 0-1.9.7c-.2.5-2.1 3.1-1.9 5.1s1.3 2.3 2.5 2.1a7.6 7.6 0 0 0 2.7-1.2z"/></svg>