<svg xmlns="http://www.w3.org/2000/svg" width="16" height="16" viewBox="0 0 16 16"><path fill="none" stroke="#fff" stroke-miterlimit="10" stroke-width=".5" d="M3.4 3.4h9.3v9.3H3.4z"/><path fill="#f1ec67" d="M10.9 5.2l-2.4 5.3a.6.6 0 0 0 0 .6c.1.3.3.3.5.3l3-1.1a.4.4 0 0 0 .2-.4v-.4s0-.2-.2-.1l-2.5.9 2-4.4s.1-.1 0-.3-.3-.6-.4-.6zm-8.1 0L.4 10.6a.4.4 0 0 0 0 .5c.1.3.3.3.5.3l3-1.1s.2 0 .2-.3v-.5s0-.2-.2-.1l-2.5.9 2-4.4s.1-.1 0-.3-.3-.6-.4-.5z"/><path fill="#f1ec67" d="M11.3 9s-.1.1 0-.1l.3-.6s0-.1.2-.2h.3l1.7-3.3s.1-.3.2-.2a1.6 1.6 0 0 1 .4.7v1.8l1.1-.5h.2l-.3.9-.3.2-.8.2v2.8a.2.2 0 0 1-.2.2h-.6V8.2zm2.4-2.7l-.6 1.3.6-.2zm-6.6 3.9a5.5 5.5 0 0 0 2.2-2.9c.1-.4.4-1.9-1.6-1.8a6.4 6.4 0 0 0-3.5 1.6s-.2.2-.2 1 .5-.4 1.6-1.1S8 5.9 8.4 6.4 8 8.6 6.8 9.5s-1.2.7-1.3.2A4.2 4.2 0 0 1 6.7 7s.1-.1-.3-.1a1.4 1.4 0 0 0-.9.3 5 5 0 0 0-.9 2.5c.1 1 .6 1.1 1.2 1a4.8 4.8 0 0 0 1.3-.5z"/></svg>