<?xml version="1.0" encoding="utf-8"?>
<!-- Generator: Adobe Illustrator 24.0.1, SVG Export Plug-In . SVG Version: 6.00 Build 0)  -->
<svg version="1.1" id="Layer_1" xmlns="http://www.w3.org/2000/svg" xmlns:xlink="http://www.w3.org/1999/xlink" x="0px" y="0px"
	 viewBox="0 0 124.7 64" style="enable-background:new 0 0 124.7 64;" xml:space="preserve">
<style type="text/css">
	.st0{fill:#DDDBCE;}
	.st1{fill:#4F73EB;}
	.st2{fill:#F25B27;}
	.st3{fill:#231F20;}
	.st4{fill:#F4EF5D;}
	.st5{fill:#F8F1EB;}
</style>
<path class="st0" d="M262.8-38.1h-44c-1.1,0-2-0.9-2-2v-44c0-1.1,0.9-2,2-2h44c1.1,0,2,0.9,2,2v44C264.8-39,263.9-38.1,262.8-38.1z"
	/>
<g>
	<polygon class="st1" points="34.6,15.1 34.6,50.8 103.3,50.8 103.3,46.6 38.5,46.6 38.5,15.1 	"/>
	<polygon class="st1" points="2.2,15.1 2.2,50.8 14.9,50.8 14.9,46.6 6.1,46.6 6.1,15.1 	"/>
	<path class="st1" d="M24.7,50.8L24.7,50.8c-3.9,0-7.1-3.2-7.1-7.1V20.2c0-3.9,3.2-7.1,7.1-7.1l0,0c3.9,0,7.1,3.2,7.1,7.1v23.6
		C31.7,47.7,28.5,50.8,24.7,50.8z M27.8,43.2V20.8c0-1.7-1.4-3.2-3.2-3.2l0,0c-1.7,0-3.2,1.4-3.2,3.2v22.4c0,1.7,1.4,3.2,3.2,3.2
		l0,0C26.4,46.4,27.8,44.9,27.8,43.2z"/>
	<path class="st1" d="M111.7,14.1h5.2l5.6,36.7h-4l-1.4-8.4h-5.4l-1.3,8.4h-4.3L111.7,14.1z M114.3,23.2l-1.9,14.5h3.7L114.3,23.2z"
		/>
</g>
<path class="st2" d="M96.9-38.1h-44c-1.1,0-2-0.9-2-2v-44c0-1.1,0.9-2,2-2h44c1.1,0,2,0.9,2,2v44C98.9-39,98-38.1,96.9-38.1z"/>
<path class="st1" d="M39.6-38.1h-44c-1.1,0-2-0.9-2-2v-44c0-1.1,0.9-2,2-2h44c1.1,0,2,0.9,2,2v44C41.6-39,40.7-38.1,39.6-38.1z"/>
<path class="st3" d="M-17.7-38.1h-44c-1.1,0-2-0.9-2-2v-44c0-1.1,0.9-2,2-2h44c1.1,0,2,0.9,2,2v44C-15.7-39-16.6-38.1-17.7-38.1z"/>
<path class="st4" d="M152.1-38.1h-44c-1.1,0-2-0.9-2-2v-44c0-1.1,0.9-2,2-2h44c1.1,0,2,0.9,2,2v44C154.1-39,153.2-38.1,152.1-38.1z"
	/>
<path class="st5" d="M207.5-38.1h-44c-1.1,0-2-0.9-2-2v-44c0-1.1,0.9-2,2-2h44c1.1,0,2,0.9,2,2v44C209.5-39,208.6-38.1,207.5-38.1z"
	/>
</svg>
