<?xml version="1.0" encoding="utf-8"?>
<!-- Generator: Adobe Illustrator 24.0.1, SVG Export Plug-In . SVG Version: 6.00 Build 0)  -->
<svg version="1.1" id="Layer_1" xmlns="http://www.w3.org/2000/svg" xmlns:xlink="http://www.w3.org/1999/xlink" x="0px" y="0px"
	 viewBox="0 0 32 32" style="enable-background:new 0 0 32 32;" xml:space="preserve">
<style type="text/css">
	.st0{fill:#F25B27;}
</style>
<g>
	<polygon class="st0" points="9.1,11.8 9.1,20.7 26.1,20.7 26.1,19.6 10.1,19.6 10.1,11.8 	"/>
	<polygon class="st0" points="1.1,11.8 1.1,20.7 4.2,20.7 4.2,19.6 2.1,19.6 2.1,11.8 	"/>
	<path class="st0" d="M6.7,20.7L6.7,20.7c-1,0-1.7-0.8-1.7-1.7v-5.8c0-1,0.8-1.7,1.7-1.7l0,0c1,0,1.7,0.8,1.7,1.7V19
		C8.4,19.9,7.6,20.7,6.7,20.7z M7.4,18.8v-5.5c0-0.4-0.4-0.8-0.8-0.8l0,0c-0.4,0-0.8,0.4-0.8,0.8v5.5c0,0.4,0.4,0.8,0.8,0.8l0,0
		C7.1,19.6,7.4,19.2,7.4,18.8z"/>
	<path class="st0" d="M28.2,11.6h1.3l1.4,9.1h-1l-0.3-2.1h-1.3L28,20.7h-1.1L28.2,11.6z M28.9,13.8l-0.5,3.6h0.9L28.9,13.8z"/>
</g>
</svg>
