<?xml version="1.0" encoding="utf-8"?>
<!-- Generator: Adobe Illustrator 24.0.0, SVG Export Plug-In . SVG Version: 6.00 Build 0)  -->
<svg version="1.1" id="Layer_1" xmlns="http://www.w3.org/2000/svg" xmlns:xlink="http://www.w3.org/1999/xlink" x="0px" y="0px"
	 viewBox="0 0 24 24" style="enable-background:new 0 0 24 24;" xml:space="preserve">
<path d="M16.4,7.8l-3.6,8c-0.2,0.2-0.2,0.5-0.1,0.8c0.2,0.4,0.6,0.5,0.7,0.4l4.6-1.6c0,0,0.2-0.1,0.2-0.5c0.1-0.2,0.1-0.5,0-0.7
	c0,0,0.1-0.3-0.3-0.2l-3.7,1.4l3-6.5c0.1-0.2,0.1-0.3,0-0.5c-0.2-0.3-0.5-0.9-0.6-0.8C16.5,7.6,16.4,7.7,16.4,7.8
	C16.4,7.8,16.4,7.8,16.4,7.8z M4.3,7.8l-3.6,8c-0.2,0.2-0.2,0.5-0.1,0.8c0.2,0.3,0.5,0.5,0.8,0.5l4.5-1.7c0,0,0.3,0,0.3-0.5v-0.7
	C6.2,14.1,6.1,14,6,14c0,0-0.1,0-0.1,0l-3.7,1.4l3-6.5c0.1-0.2,0-0.4-0.1-0.5C5,8.1,4.7,7.6,4.5,7.6L4.3,7.8z"/>
<path d="M17,13.6c0,0-0.3,0-0.1-0.3l0.4-0.8c0,0,0-0.2,0.3-0.3h0.5l2.5-4.9c0,0,0.1-0.4,0.3-0.2s0.7,0.7,0.7,1v2.6l1.6-0.7
	c0,0,0.3-0.1,0.2,0.1c-0.1,0.4-0.2,0.8-0.3,1.2l-0.5,0.3L21.4,12v4c0,0,0,0.4-0.3,0.3l-0.9-0.2c-0.1,0-0.1-0.1-0.1-0.2
	s0.1-3.6,0.1-3.6L17,13.6z M20.5,9.5l-0.9,2l0.8-0.4L20.5,9.5z M10.7,15.2c1.6-1,2.7-2.4,3.2-4.2c0.1-0.6,0.6-2.9-2.3-2.8
	c-2,0.3-3.8,1.1-5.2,2.5c0,0-0.4,0.2-0.4,1.4s0.8-0.6,2.4-1.6s3.6-1.7,4.2-0.9s-0.6,3.2-2.3,4.6c0,0-1.9,1.1-2,0.3
	c0.1-1.5,0.7-2.9,1.7-4c0,0,0.2-0.2-0.3-0.1c-0.5,0-1,0.2-1.4,0.5c-0.2,0.3-1.5,2.2-1.4,3.6s0.9,1.7,1.8,1.6
	C9.4,15.9,10.1,15.6,10.7,15.2z"/>
</svg>
