<?xml version="1.0" encoding="utf-8"?>
<!-- Generator: Adobe Illustrator 24.0.0, SVG Export Plug-In . SVG Version: 6.00 Build 0)  -->
<svg version="1.1" id="Layer_1" xmlns="http://www.w3.org/2000/svg" xmlns:xlink="http://www.w3.org/1999/xlink" x="0px" y="0px"
	 viewBox="0 0 16 16" style="enable-background:new 0 0 16 16;" xml:space="preserve">
<style type="text/css">
	.st0{fill:none;stroke:#FFFFFF;stroke-width:0.5;stroke-miterlimit:10;}
</style>
<path class="st0" d="M3.4,3.4h9.3v9.3H3.4L3.4,3.4z"/>
<g>
	<path d="M10.9,5.2l-2.4,5.3c-0.1,0.2-0.1,0.4,0,0.6c0.1,0.3,0.3,0.3,0.5,0.3l3-1.1c0.1-0.1,0.2-0.2,0.2-0.4V9.5c0,0,0-0.2-0.2-0.1
		l-2.5,0.9l2-4.4c0,0,0.1-0.1,0-0.3S11.2,5,11.1,5L10.9,5.2z M2.8,5.2l-2.4,5.4c-0.1,0.1-0.1,0.4,0,0.5c0.1,0.3,0.3,0.3,0.5,0.3
		l3-1.1c0,0,0.2,0,0.2-0.3V9.5c0,0,0-0.2-0.2-0.1l-2.5,0.9l2-4.4c0,0,0.1-0.1,0-0.3S3.1,5,3,5.1L2.8,5.2z"/>
	<path d="M11.3,9c0,0-0.1,0.1,0-0.1l0.3-0.6c0,0,0-0.1,0.2-0.2h0.3l1.7-3.3c0,0,0.1-0.3,0.2-0.2c0.2,0.2,0.3,0.4,0.4,0.7v1.8
		l1.1-0.5h0.2l-0.3,0.9l-0.3,0.2l-0.8,0.2v2.8c0,0.1-0.1,0.2-0.2,0.2h-0.6V8.2L11.3,9z M13.7,6.3l-0.6,1.3l0.6-0.2V6.3z M7.1,10.2
		c1-0.7,1.8-1.7,2.2-2.9c0.1-0.4,0.4-1.9-1.6-1.8C6.4,5.7,5.2,6.2,4.2,7.1c0,0-0.2,0.2-0.2,1S4.5,7.7,5.6,7S8,5.9,8.4,6.4
		S8,8.6,6.8,9.5s-1.2,0.7-1.3,0.2c0.1-1,0.5-2,1.2-2.7c0,0,0.1-0.1-0.3-0.1C6.1,6.9,5.8,7,5.5,7.2C5,7.9,4.7,8.8,4.6,9.7
		c0.1,1,0.6,1.1,1.2,1C6.3,10.6,6.7,10.4,7.1,10.2z"/>
</g>
</svg>
