<?xml version="1.0" encoding="utf-8"?>
<!-- Generator: Adobe Illustrator 24.0.1, SVG Export Plug-In . SVG Version: 6.00 Build 0)  -->
<svg version="1.1" id="Layer_1" xmlns="http://www.w3.org/2000/svg" xmlns:xlink="http://www.w3.org/1999/xlink" x="0px" y="0px"
	 viewBox="0 0 16 16" style="enable-background:new 0 0 16 16;" xml:space="preserve">
<style type="text/css">
	.st0{fill:#4F73EB;}
</style>
<g>
	<polygon class="st0" points="4.4,5.8 4.4,10.4 13.3,10.4 13.3,9.9 4.9,9.9 4.9,5.8 	"/>
	<polygon class="st0" points="0.2,5.8 0.2,10.4 1.8,10.4 1.8,9.9 0.7,9.9 0.7,5.8 	"/>
	<path class="st0" d="M3.1,10.4L3.1,10.4c-0.5,0-0.9-0.4-0.9-0.9v-3c0-0.5,0.4-0.9,0.9-0.9l0,0C3.6,5.6,4,6,4,6.5v3.1
		C4,10,3.6,10.4,3.1,10.4z M3.5,9.5v-3c0-0.2-0.2-0.4-0.4-0.4l0,0c-0.2,0-0.4,0.2-0.4,0.4v2.9c0,0.2,0.2,0.4,0.4,0.4l0,0
		C3.3,9.9,3.5,9.7,3.5,9.5z"/>
	<path class="st0" d="M14.4,5.7h0.7l0.7,4.8h-0.5l-0.2-1.1h-0.7l-0.2,1.1h-0.6L14.4,5.7z M14.8,6.9l-0.2,1.9H15L14.8,6.9z"/>
</g>
</svg>
