<?xml version="1.0" encoding="utf-8"?>
<!-- Generator: Adobe Illustrator 24.0.1, SVG Export Plug-In . SVG Version: 6.00 Build 0)  -->
<svg version="1.1" id="Layer_1" xmlns="http://www.w3.org/2000/svg" xmlns:xlink="http://www.w3.org/1999/xlink" x="0px" y="0px"
	 viewBox="0 0 24 24" style="enable-background:new 0 0 24 24;" xml:space="preserve">
<style type="text/css">
	.st0{fill:#231F20;}
</style>
<g>
	<polygon class="st0" points="6.8,8.8 6.8,15.5 19.7,15.5 19.7,14.7 7.5,14.7 7.5,8.8 	"/>
	<polygon class="st0" points="0.7,8.8 0.7,15.5 3.1,15.5 3.1,14.7 1.4,14.7 1.4,8.8 	"/>
	<path class="st0" d="M4.9,15.5L4.9,15.5c-0.7,0-1.3-0.6-1.3-1.3V9.8c0-0.7,0.6-1.3,1.3-1.3l0,0c0.7,0,1.3,0.6,1.3,1.3v4.4
		C6.3,14.9,5.7,15.5,4.9,15.5z M5.5,14.1V9.9c0-0.3-0.3-0.6-0.6-0.6l0,0c-0.3,0-0.6,0.3-0.6,0.6v4.2c0,0.3,0.3,0.6,0.6,0.6l0,0
		C5.3,14.7,5.5,14.4,5.5,14.1z"/>
	<path class="st0" d="M21.3,8.6h1l1,6.9h-0.8l-0.3-1.6h-1L21,15.5h-0.8L21.3,8.6z M21.8,10.3L21.4,13h0.7L21.8,10.3z"/>
</g>
</svg>
